<svg xmlns="http://www.w3.org/2000/svg" xmlns:xlink="http://www.w3.org/1999/xlink" viewBox="0,0,256,256" width="48px" height="48px" fill-rule="nonzero"><g fill="#ffffff" fill-rule="nonzero" stroke="none" stroke-width="1" stroke-linecap="butt" stroke-linejoin="miter" stroke-miterlimit="10" stroke-dasharray="" stroke-dashoffset="0" font-family="none" font-weight="none" font-size="none" text-anchor="none" style="mix-blend-mode: normal"><g transform="scale(5.33333,5.33333)"><path d="M17.5,27c-0.9,0 -1.74,0.27 -2.45,0.73l3.43,1.47c1.27,0.55 1.86,2.02 1.32,3.28c-0.41,0.95 -1.33,1.52 -2.3,1.52c-0.33,0 -0.66,-0.06 -0.98,-0.2l-3.44,-1.47c0.39,2.08 2.22,3.67 4.42,3.67c2.48,0 4.5,-2.02 4.5,-4.5c0,-2.48 -2.02,-4.5 -4.5,-4.5zM30,13c-2.76,0 -5,2.24 -5,5c0,2.76 2.24,5 5,5c2.76,0 5,-2.24 5,-5c0,-2.76 -2.24,-5 -5,-5zM30,21c-1.66,0 -3,-1.34 -3,-3c0,-1.66 1.34,-3 3,-3c1.66,0 3,1.34 3,3c0,1.66 -1.34,3 -3,3zM24,4c-10.72,0 -19.46,8.42 -19.97,19.01l8.95,3.83c1.17,-1.14 2.76,-1.84 4.52,-1.84c0.16,0 0.33,0.01 0.49,0.02l4.07,-6.1c-0.04,-0.3 -0.06,-0.61 -0.06,-0.92c0,-4.41 3.59,-8 8,-8c4.41,0 8,3.59 8,8c0,4.41 -3.59,8 -8,8c-0.14,0 -0.28,-0.01 -0.42,-0.02l-5.65,4.62c0.04,0.3 0.07,0.59 0.07,0.9c0,3.58 -2.92,6.5 -6.5,6.5c-3.58,0 -6.5,-2.92 -6.5,-6.5v-0.06l-6.44,-2.76c2.1,8.79 10,15.32 19.44,15.32c11.05,0 20,-8.95 20,-20c0,-11.05 -8.95,-20 -20,-20z"></path></g></g></svg>